<svg xmlns="http://www.w3.org/2000/svg" width="660" height="300" viewBox="0 0 660 300"><defs><style>.a{fill:#f8f9fa;}.b,.v{fill:#f6f7f8;}.c,.j,.t,.u{fill:#fff;}.d,.r{fill:#bbc1cc;}.d,.e,.g,.h,.j,.k,.p,.u,.v,.w,.x,.y,.z{fill-rule:evenodd;}.aa,.ab,.ac,.e,.f,.k,.l,.m,.n,.p,.q,.s,.x{fill:none;}.e,.f{stroke:#000;}.aa,.ab,.ac,.e,.f,.g,.h,.i,.j,.k,.l,.m,.n,.o,.p,.q,.s,.t,.u,.x,.y,.z{stroke-linecap:round;stroke-linejoin:round;}.g{fill:#778099;}.ab,.g,.h,.i,.o,.s,.t,.u,.x,.y,.z{stroke:#1e222a;}.h{fill:#1e222a;}.i{fill:#a8a4c3;stroke-width:3px;}.aa,.ac,.j,.k,.l{stroke:#e46;}.m,.n{stroke:#ff4672;}.n{stroke-dasharray:4.12 6.18;}.o,.w{fill:#ffb600;}.p,.q{stroke:#efa500;}.y{fill:#c7cdd7;}.z{fill:#e46;}.aa{stroke-dasharray:3.88 5.83;}.ab{stroke-dasharray:4.09 6.14;}.ac{stroke-dasharray:3.99 5.98;}</style></defs><rect class="a" width="660" height="300"/><path class="b" d="M147.76,98.29h97.71a6.35,6.35,0,0,1,6.35,6.35v48.1a0,0,0,0,1,0,0H141.41a0,0,0,0,1,0,0v-48.1a6.35,6.35,0,0,1,6.35-6.35Z" transform="translate(393.22 251.02) rotate(-180)"/><rect class="c" x="141.41" y="77.82" width="110.4" height="20.46" transform="translate(393.22 176.11) rotate(-180)"/><path class="d" d="M251.81,87.33H187.32l-3-9.52H155l-3,9.52H141.41V76.19a7.26,7.26,0,0,1,7.26-7.26h95.88a7.26,7.26,0,0,1,7.26,7.26Z"/><path class="e" d="M148.38,68.93H245q6.71.25,6.83,7.23v69.39q-.13,6.84-6.83,6.83h-96.6a7.45,7.45,0,0,1-5.26-1.7c-1.05-1.06-1.62-2.76-1.71-5.13V76.16a7.36,7.36,0,0,1,1.71-5C144.09,69.85,145.84,69.1,148.38,68.93ZM251.81,87.07h-64.4l-2.89-9.6h-29.7l-2.76,9.6H141.41m102.12-8.94H231.7"/><line class="f" x1="141.41" y1="97.93" x2="251.81" y2="97.93"/><rect class="c" x="321.2" y="49.11" width="183.38" height="33.99" transform="translate(825.77 132.21) rotate(-180)"/><path class="b" d="M331,83.1H494.77a9.81,9.81,0,0,1,9.81,9.81v80.64a0,0,0,0,1,0,0H321.2a0,0,0,0,1,0,0V92.91A9.81,9.81,0,0,1,331,83.1Z" transform="translate(825.77 256.64) rotate(-180)"/><path class="g" d="M77.68,181c.26.59.48,1.14.68,1.66q6.15.78,9.36-3.8a4.08,4.08,0,0,1,3.22-2,4.39,4.39,0,0,1,3.42,2q3.12,4.58,9.27,3.8c.19-.52.42-1.07.68-1.66q-4.78.19-6.64-4.68t-6.73-2.25q-4.77-2.62-6.63,2.25T77.68,181Z"/><path class="g" d="M127.13,245.71q10.44-2.15,15.12-7.42,5-5.55,2.93-14.14l-7.7-31.61q-3.61-14.43-22.83-17.07Q116,162.3,111.92,152a38.81,38.81,0,0,0-12.2-16.19q-4.87-3.61-8.39-3.81-3.6.19-8.48,3.81A38.81,38.81,0,0,0,70.65,152q-4.09,10.35-2.73,23.51-19.22,2.64-22.83,17.07l-7.7,31.61q-2.05,8.58,2.93,14.14,4.68,5.27,15.21,7.42Zm-23.5-63a22,22,0,0,1-6.44,7.51Q93.68,192.84,91,193q-2.62-.19-6.14-2.83a22.79,22.79,0,0,1-6.54-7.51c-.2-.52-.42-1.07-.68-1.66a38.78,38.78,0,0,1-2.44-10.44,1.69,1.69,0,0,0-.1-.58,32.51,32.51,0,0,1,0-3.42A14.91,14.91,0,0,1,80,157.42a16.43,16.43,0,0,1,22.14,0,15.21,15.21,0,0,1,4.59,9.27,9.28,9.28,0,0,1,.09,1.17c0,.72,0,1.4-.09,2a31.6,31.6,0,0,1-.69,5.37,39.65,39.65,0,0,1-1.75,5.75C104.05,181.62,103.82,182.17,103.63,182.69Z"/><polygon class="h" points="52.69 220.95 57.82 255.54 124.75 255.54 129.78 220.95 52.69 220.95"/><line class="i" x1="59.87" y1="260.8" x2="122.7" y2="260.8"/><path class="j" d="M99.12,245.94a11.36,11.36,0,0,1-3.27,2.26v2a1.85,1.85,0,0,1-1.79,1.8H88.37a1.85,1.85,0,0,1-1.8-1.8v-2a11.57,11.57,0,0,1-3.22-2.26,11.21,11.21,0,0,1,0-15.81,11.15,11.15,0,0,1,19,7.91A10.87,10.87,0,0,1,99.12,245.94Z"/><polyline class="k" points="93.09 240.67 95.39 238.37 97.74 240.67"/><polyline class="k" points="97.74 236.03 95.39 238.37 93.09 236.03"/><polyline class="k" points="89.37 236.03 87.03 238.37 84.73 236.03"/><polyline class="k" points="84.73 240.67 87.03 238.37 89.37 240.67"/><line class="l" x1="93.09" y1="244.01" x2="93.09" y2="244.84"/><line class="l" x1="89.37" y1="244.01" x2="89.37" y2="244.84"/><line class="l" x1="89.37" y1="249.02" x2="89.37" y2="249.86"/><line class="l" x1="93.09" y1="249.02" x2="93.09" y2="249.86"/><line class="m" x1="178.28" y1="142.61" x2="176.83" y2="143.99"/><line class="n" x1="172.37" y1="148.27" x2="100.24" y2="217.43"/><line class="m" x1="98.01" y1="219.57" x2="96.57" y2="220.95"/><path class="d" d="M504.58,65.48H397.45l-5-15.82H343.82l-4.9,15.82H321.2V47a12.05,12.05,0,0,1,12.05-12.06H492.52A12.06,12.06,0,0,1,504.58,47Z"/><path class="e" d="M332.77,34.92H493.23q11.13.44,11.35,12V162.19q-.22,11.35-11.35,11.36H332.77q-5.68,0-8.74-2.84c-1.74-1.75-2.69-4.59-2.83-8.52V46.93a12.22,12.22,0,0,1,2.83-8.3Q326.43,35.35,332.77,34.92ZM504.58,65h-107L392.8,49.11H343.46L338.88,65H321.2M490.82,50.2H471.18"/><line class="f" x1="504.58" y1="83.1" x2="321.2" y2="83.1"/><rect class="o" x="336.45" y="99.95" width="33.53" height="56.83" transform="translate(706.42 256.74) rotate(-180)"/><path class="p" d="M362,129.34a12.19,12.19,0,0,1-3.52,2.44v2.13a2,2,0,0,1-.59,1.35,1.94,1.94,0,0,1-1.36.59h-6.14a1.93,1.93,0,0,1-1.36-.59,2,2,0,0,1-.59-1.35v-2.13a12.58,12.58,0,0,1-3.48-2.44,12.12,12.12,0,0,1,0-17.08,12.05,12.05,0,0,1,20.57,8.54A11.72,11.72,0,0,1,362,129.34Z"/><polyline class="p" points="355.47 123.65 357.96 121.17 360.49 123.65"/><polyline class="p" points="360.49 118.63 357.96 121.17 355.47 118.63"/><polyline class="p" points="351.45 118.63 348.92 121.17 346.44 118.63"/><polyline class="p" points="346.44 123.65 348.92 121.17 351.45 123.65"/><line class="q" x1="355.47" y1="127.25" x2="355.47" y2="128.16"/><line class="q" x1="351.45" y1="127.25" x2="351.45" y2="128.16"/><line class="q" x1="351.45" y1="132.68" x2="351.45" y2="133.58"/><line class="q" x1="355.47" y1="132.68" x2="355.47" y2="133.58"/><rect class="r" x="384.06" y="98.95" width="106.34" height="8.28" rx="4.14" transform="translate(874.46 206.19) rotate(-180)"/><line class="s" x1="384.06" y1="116.25" x2="489.07" y2="116.25"/><line class="s" x1="384.06" y1="124.1" x2="489.07" y2="124.11"/><line class="s" x1="384.06" y1="131.96" x2="489.07" y2="131.96"/><line class="s" x1="384.06" y1="139.82" x2="489.07" y2="139.82"/><line class="s" x1="384.06" y1="147.68" x2="489.07" y2="147.68"/><line class="s" x1="384.06" y1="155.78" x2="489.07" y2="155.78"/><rect class="t" x="349.55" y="163.07" width="14.48" height="10.89"/><path class="u" d="M351.69,167.77V150.72a3.28,3.28,0,0,0-.9-2.12,3.09,3.09,0,0,0-4.36,0,3.64,3.64,0,0,0-1,2.12v22.19l-6.22-6.29-.12-.12a3.19,3.19,0,0,0-2.12-.84,3,3,0,0,0-2.18.9,3.14,3.14,0,0,0-.91,2.18,3,3,0,0,0,.85,2.12l.12.12,12.88,12.94.24.24a12.92,12.92,0,0,0,8.95,3.45,13.49,13.49,0,0,0,13.31-12.46v-1.81l-.06-7v-.18a2.77,2.77,0,0,0-.91-2.12,3.08,3.08,0,0,0-4.35,0,3.08,3.08,0,0,0-.91,2.12v1.57"/><path class="u" d="M351.69,163.36a3.29,3.29,0,0,1,.91-2.12,3.21,3.21,0,0,1,4.35,0,3.24,3.24,0,0,1,.91,2.12,3.24,3.24,0,0,1,.91-2.12,3.21,3.21,0,0,1,4.35,0,3.24,3.24,0,0,1,.91,2.12v2.84"/><line class="t" x1="357.86" y1="163.36" x2="357.86" y2="167.77"/><path class="v" d="M547.14,159c-.14,1.23,7-14.55,13.39-15.64q6.39-2,13.73,5.27a37.5,37.5,0,0,0,15.81,9.16,42.55,42.55,0,0,0,4.83,1.12,4.64,4.64,0,0,1,1.21.86l.95,1a7.77,7.77,0,0,1,1.64,5,8.29,8.29,0,0,1-1.64,5.19,5.26,5.26,0,0,1-4.06,2.16,28.58,28.58,0,0,1-5.09,8.72Q581,190.35,571,190.35t-16.93-8.55a29.12,29.12,0,0,1-3.11-4.49,30.62,30.62,0,0,1-1.9-4.23,5.2,5.2,0,0,1-4-2.16,7.8,7.8,0,0,1-1.81-5.19,7.71,7.71,0,0,1,1-4v0a10.27,10.27,0,0,1,2.84-2.66"/><path class="w" d="M594.9,158.91v-.17c0-.75-.11-1.47-.17-2.16v-.17a30.73,30.73,0,0,0-4.66-13,28.89,28.89,0,0,0-2.16-3Q581,132,571,132t-16.93,8.47a29,29,0,0,0-6.65,16c-.18,1.55-.26,2.33-.26,2.33s.15-1,0,.26,7-14.55,13.39-15.64q6.39-2,13.73,5.27a37.5,37.5,0,0,0,15.81,9.16,42.55,42.55,0,0,0,4.83,1.12"/><path class="x" d="M594.9,158.91v-.17c0-.75-.11-1.47-.17-2.16v-.17a30.73,30.73,0,0,0-4.66-13,28.89,28.89,0,0,0-2.16-3Q581,132,571,132t-16.93,8.47a29,29,0,0,0-6.65,16c-.18,1.55-.26,2.33-.26,2.33s.15-1,0,.26,7-14.55,13.39-15.64q6.39-2,13.73,5.27a37.5,37.5,0,0,0,15.81,9.16,42.55,42.55,0,0,0,4.83,1.12,4.64,4.64,0,0,1,1.21.86l.95,1a7.77,7.77,0,0,1,1.64,5,8.29,8.29,0,0,1-1.64,5.19,5.26,5.26,0,0,1-4.06,2.16,28.58,28.58,0,0,1-5.09,8.72Q581,190.35,571,190.35t-16.93-8.55a29.12,29.12,0,0,1-3.11-4.49,30.62,30.62,0,0,1-1.9-4.23,5.2,5.2,0,0,1-4-2.16,8.42,8.42,0,0,1-.78-9.25,9.26,9.26,0,0,1,2.85-2.67"/><path class="y" d="M608.68,247.07a18.82,18.82,0,0,0,7.43-4.84q4.39-4.92,2.59-12.52l-6.82-28q-3.2-12.78-20.21-15.12C586.09,200,571,199.06,571,199.06s-13.23,1.51-20.68-12.45q-17,2.34-20.21,15.12l-6.83,28q-1.82,7.6,2.59,12.52a19,19,0,0,0,7.6,4.92Z"/><polygon class="h" points="606.14 224.45 601.46 256.01 540.41 256.01 535.82 224.45 606.14 224.45"/><line class="i" x1="599.58" y1="260.8" x2="542.28" y2="260.8"/><polygon class="z" points="202.68 108.98 211.35 117.57 211.35 129.74 202.68 138.32 190.51 138.32 181.88 129.74 181.88 117.57 190.46 108.98 202.68 108.98"/><path class="z" d="M198.1,120.07v6.6h1.47a3.32,3.32,0,0,0,3.15-3.32,3.32,3.32,0,0,0-.95-2.37,3.13,3.13,0,0,0-1.9-.91Z"/><polyline class="z" points="196.25 126.89 195.51 124.99 191.33 124.99 190.55 126.89"/><polyline class="z" points="191.33 124.99 193.4 119.9 195.51 124.99"/><line class="l" x1="217.74" y1="124.99" x2="219.74" y2="124.99"/><line class="aa" x1="225.56" y1="124.99" x2="319.75" y2="124.99"/><line class="l" x1="322.66" y1="124.99" x2="324.66" y2="124.99"/><polyline class="k" points="174.8 137.66 183.37 137.36 183.58 145.93"/><polyline class="k" points="325.52 118.95 331.62 124.99 325.52 131.03"/><path class="j" d="M294.39,111.9a11.57,11.57,0,0,1-3.27,2.26v2a1.85,1.85,0,0,1-1.79,1.8h-5.69a1.85,1.85,0,0,1-1.8-1.8v-2a11.78,11.78,0,0,1-3.22-2.26,11.21,11.21,0,0,1,0-15.81,11.15,11.15,0,0,1,19,7.9A10.87,10.87,0,0,1,294.39,111.9Z"/><polyline class="k" points="288.37 106.63 290.67 104.33 293.01 106.63"/><polyline class="k" points="293.01 101.99 290.67 104.33 288.37 101.99"/><polyline class="k" points="284.64 101.99 282.3 104.33 280 101.99"/><polyline class="k" points="280 106.63 282.3 104.33 284.64 106.63"/><line class="l" x1="288.36" y1="109.96" x2="288.36" y2="110.8"/><line class="l" x1="284.64" y1="109.96" x2="284.64" y2="110.8"/><line class="l" x1="284.64" y1="114.98" x2="284.64" y2="115.82"/><line class="l" x1="288.36" y1="114.98" x2="288.36" y2="115.82"/><line class="s" x1="386.56" y1="188.18" x2="388.51" y2="188.62"/><line class="ab" x1="394.49" y1="190" x2="511.15" y2="216.8"/><line class="s" x1="514.14" y1="217.49" x2="516.09" y2="217.94"/><polyline class="x" points="383.15 193.06 378.56 185.81 385.86 181.29"/><path class="j" d="M432,235.82a11.53,11.53,0,0,1-3.27,2.25v2a1.87,1.87,0,0,1-1.79,1.8h-5.69a1.86,1.86,0,0,1-1.8-1.8v-2a11.74,11.74,0,0,1-3.22-2.25,10.89,10.89,0,0,1-3.26-7.91,11.15,11.15,0,1,1,22.29,0A10.89,10.89,0,0,1,432,235.82Z"/><polyline class="k" points="426.01 230.55 428.31 228.25 430.66 230.55"/><polyline class="k" points="430.66 225.9 428.31 228.25 426.01 225.9"/><polyline class="k" points="422.29 225.9 419.95 228.25 417.65 225.9"/><polyline class="k" points="417.65 230.55 419.95 228.25 422.29 230.55"/><line class="l" x1="426.01" y1="233.88" x2="426.01" y2="234.72"/><line class="l" x1="422.29" y1="233.88" x2="422.29" y2="234.72"/><line class="l" x1="422.29" y1="238.9" x2="422.29" y2="239.74"/><line class="l" x1="426.01" y1="238.9" x2="426.01" y2="239.74"/><line class="l" x1="508.31" y1="228.64" x2="506.36" y2="228.19"/><line class="ac" x1="500.53" y1="226.85" x2="367.37" y2="196.26"/><line class="l" x1="364.45" y1="195.59" x2="362.5" y2="195.14"/><polyline class="k" points="511.49 223.41 516.08 230.66 508.79 235.17"/></svg>